<?xml version="1.0" standalone="no"?>
<!DOCTYPE svg PUBLIC "-//W3C//DTD SVG 20010904//EN"
 "http://www.w3.org/TR/2001/REC-SVG-20010904/DTD/svg10.dtd">
<svg version="1.0" xmlns="http://www.w3.org/2000/svg"
 width="512.000000pt" height="512.000000pt" viewBox="0 0 512.000000 512.000000"
 preserveAspectRatio="xMidYMid meet">
<metadata>
Created by potrace 1.11, written by Peter Selinger 2001-2013
</metadata>
<g transform="translate(0.000000,512.000000) scale(0.100000,-0.100000)"
fill="#000000" stroke="none">
<path d="M966 4485 c-59 -21 -108 -66 -140 -128 l-29 -57 -87 0 c-72 0 -95 -4
-131 -23 -54 -29 -105 -94 -120 -152 l-11 -42 -74 -5 c-93 -6 -154 -41 -199
-113 -29 -47 -30 -53 -29 -159 1 -61 11 -212 23 -336 24 -270 38 -425 96
-1110 24 -289 49 -577 55 -640 5 -63 17 -194 25 -290 45 -520 42 -498 70 -556
30 -61 100 -124 162 -146 31 -11 393 -13 2008 -13 l1970 0 53 24 c66 30 135
105 156 169 9 29 31 233 56 527 22 264 49 581 60 705 11 124 42 488 70 810 27
322 55 638 61 704 23 236 12 295 -67 364 -51 46 -100 62 -183 62 -57 0 -61 2
-61 23 -1 61 -65 146 -135 178 -38 18 -102 19 -1376 19 l-1337 0 -16 39 c-22
57 -74 111 -131 137 -49 23 -55 24 -375 23 -250 0 -334 -3 -364 -14z"/>
</g>
</svg>
